<?xml version="1.0" encoding="utf-8"?>
<!-- Generator: Adobe Illustrator 16.0.0, SVG Export Plug-In . SVG Version: 6.00 Build 0)  -->
<!DOCTYPE svg PUBLIC "-//W3C//DTD SVG 1.1//EN" "http://www.w3.org/Graphics/SVG/1.1/DTD/svg11.dtd">
<svg version="1.1" id="Layer_1" xmlns="http://www.w3.org/2000/svg" xmlns:xlink="http://www.w3.org/1999/xlink" x="0px" y="0px"
	 width="226.006px" height="93.496px" viewBox="0 0 226.006 93.496" enable-background="new 0 0 226.006 93.496"
	 xml:space="preserve">
<line fill="none" stroke="#000000" stroke-width="2.8346" x1="93.55" y1="57.293" x2="93.55" y2="93.355"/>
<path fill="none" stroke="#000000" stroke-width="2.8346" d="M121.337,75.694c0-1.232,0.075-2.466,0.245-3.688
	c0.156-1.122,0.396-2.234,0.734-3.314c0.316-1.008,0.721-1.988,1.225-2.918c0.48-0.883,1.051-1.719,1.711-2.479
	c0.646-0.746,1.379-1.417,2.178-1.996c0.809-0.586,1.687-1.076,2.605-1.468c0.959-0.409,1.963-0.708,2.984-0.913
	c1.094-0.221,2.208-0.331,3.324-0.355c0.005,0,0.01,0,0.015,0s0.009,0,0.014,0c0.929,0,1.858,0.066,2.774,0.216
	c0.852,0.14,1.693,0.353,2.502,0.651c0.77,0.285,1.511,0.648,2.2,1.093c0.674,0.433,1.299,0.942,1.854,1.517
	c0.559,0.579,1.049,1.225,1.461,1.915c0.43,0.714,0.777,1.476,1.049,2.264c0.289,0.834,0.491,1.698,0.625,2.57
	c0.145,0.944,0.207,1.901,0.207,2.856h-0.008v21.71"/>
<path fill="none" stroke="#000000" stroke-width="2.8346" d="M57.552,86.831c-0.676,0.732-1.425,1.4-2.229,1.989
	c-0.811,0.593-1.68,1.106-2.586,1.538c-0.931,0.442-1.903,0.798-2.898,1.066c-1.036,0.279-2.097,0.465-3.164,0.565
	c-0.554,0.053-1.11,0.081-1.667,0.088c-0.518,0.005-1.035-0.009-1.55-0.046c-0.973-0.069-1.943-0.219-2.891-0.455
	c-0.906-0.225-1.791-0.528-2.644-0.909c-0.829-0.37-1.624-0.813-2.373-1.327c-0.741-0.506-1.436-1.08-2.074-1.709
	c-0.642-0.635-1.228-1.327-1.749-2.064c-0.532-0.754-0.997-1.557-1.391-2.39c-0.407-0.864-0.741-1.765-0.998-2.685
	c-0.271-0.967-0.458-1.955-0.571-2.952c-0.117-1.05-0.151-2.109-0.104-3.166c0.046-1.023,0.168-2.043,0.375-3.046
	c0.196-0.951,0.469-1.887,0.819-2.792c0.337-0.868,0.746-1.708,1.226-2.507c0.467-0.776,1.002-1.514,1.598-2.196
	c0.59-0.675,1.239-1.298,1.938-1.855c0.703-0.563,1.457-1.061,2.249-1.489c0.809-0.436,1.658-0.799,2.531-1.086
	c0.909-0.298,1.844-0.514,2.79-0.65c0.492-0.071,0.987-0.121,1.482-0.15c0.508-0.029,1.016-0.039,1.524-0.027
	c0.967,0.023,1.931,0.123,2.88,0.309c0.896,0.177,1.777,0.432,2.627,0.764c0.82,0.321,1.611,0.715,2.358,1.18
	c0.736,0.459,1.43,0.987,2.068,1.572c0.643,0.591,1.232,1.24,1.758,1.938c0.542,0.716,1.017,1.48,1.425,2.28
	c0.426,0.834,0.777,1.706,1.059,2.601c0.297,0.946,0.515,1.918,0.661,2.898c0.124,0.829,0.194,1.664,0.219,2.502H28.655"/>
<path fill="none" stroke="#000000" stroke-width="2.8346" d="M189.744,48.414c0-7.238,0-14.476,0-21.713
	c0-1.001-0.07-2.004-0.23-2.992c-0.145-0.887-0.362-1.762-0.669-2.606c-0.279-0.773-0.635-1.518-1.069-2.215
	c-0.414-0.661-0.9-1.278-1.452-1.83c-0.55-0.552-1.163-1.041-1.823-1.456c-0.693-0.437-1.437-0.792-2.206-1.073
	c-0.839-0.306-1.708-0.524-2.591-0.668c-0.981-0.162-1.977-0.231-2.972-0.231c-1.087,0.021-2.174,0.121-3.244,0.318
	c-0.979,0.182-1.946,0.445-2.877,0.802c-0.729,0.282-1.438,0.622-2.111,1.02c-0.394,0.234-0.774,0.486-1.142,0.761
	c-0.729,0.542-1.398,1.164-1.997,1.849c-0.616,0.704-1.153,1.475-1.612,2.291c-1.466,2.605-2.12,5.662-2.398,8.237"/>
<line fill="none" stroke="#000000" stroke-width="2.8346" x1="161.35" y1="12.35" x2="161.35" y2="48.414"/>
<path fill="none" stroke="#000000" stroke-width="2.8346" d="M71.504,73.638c0.073-1.086,0.21-2.169,0.429-3.236
	c0.203-0.988,0.475-1.963,0.831-2.908c0.333-0.887,0.74-1.747,1.229-2.56c0.467-0.776,1.007-1.509,1.621-2.175
	c0.601-0.654,1.272-1.244,1.999-1.755c0.73-0.515,1.518-0.949,2.34-1.297c0.849-0.36,1.737-0.63,2.642-0.815
	c0.957-0.197,1.931-0.301,2.907-0.328c0.198-0.004,0.396-0.01,0.595-0.014"/>
<line fill="none" stroke="#000000" stroke-width="2.8346" x1="71.508" y1="57.294" x2="71.508" y2="93.357"/>
<path fill="none" stroke="#000000" stroke-width="2.8346" d="M186.053,74.406c-4.549,0-9.099,0-13.648,0
	c-1.165,0-2.33,0.073-3.48,0.249c-0.998,0.152-1.984,0.38-2.938,0.711c-0.818,0.287-1.613,0.65-2.346,1.115
	c-0.33,0.209-0.646,0.437-0.946,0.688c-0.281,0.235-0.548,0.49-0.794,0.764c-0.467,0.523-0.857,1.117-1.145,1.758
	c-0.145,0.322-0.262,0.657-0.355,0.998c-0.095,0.355-0.163,0.72-0.205,1.086c-0.045,0.396-0.057,0.798-0.047,1.197
	c0.01,0.422,0.045,0.842,0.108,1.258c0.118,0.782,0.337,1.551,0.656,2.273c0.306,0.693,0.706,1.35,1.187,1.936
	c0.486,0.598,1.055,1.127,1.678,1.578c0.66,0.477,1.381,0.867,2.136,1.172c0.823,0.332,1.685,0.563,2.561,0.707
	c0.472,0.078,0.946,0.129,1.423,0.156c0.249,0.016,0.497,0.023,0.746,0.026c0.186,0.001,0.37,0,0.557-0.003
	c0.221-0.005,0.442-0.012,0.663-0.021c0.846-0.039,1.688-0.129,2.523-0.273c0.782-0.138,1.556-0.325,2.311-0.569
	c0.719-0.233,1.421-0.518,2.097-0.855c0.655-0.327,1.287-0.705,1.883-1.13c0.594-0.426,1.152-0.896,1.67-1.41
	c1.72-1.702,2.987-3.855,3.75-6.104"/>
<path fill="none" stroke="#000000" stroke-width="2.8346" d="M186.165,93.364c-0.048-7.956-0.094-15.912-0.141-23.87
	c-0.005-0.636-0.047-1.273-0.132-1.905c-0.078-0.581-0.193-1.157-0.352-1.721c-0.148-0.525-0.333-1.039-0.559-1.535
	c-0.213-0.471-0.463-0.924-0.752-1.352c-0.281-0.416-0.596-0.811-0.941-1.174c-0.349-0.365-0.728-0.7-1.132-1
	c-0.417-0.312-0.859-0.588-1.323-0.828c-0.488-0.254-0.998-0.47-1.52-0.648c-0.562-0.191-1.137-0.342-1.719-0.457
	c-0.633-0.124-1.273-0.207-1.916-0.254c-0.344-0.025-0.687-0.041-1.029-0.047c-0.387-0.006-0.771-0.002-1.156,0.015
	c-0.793,0.037-1.584,0.128-2.363,0.276c-0.789,0.149-1.566,0.358-2.326,0.618c-0.797,0.271-1.573,0.601-2.327,0.974
	c-0.812,0.401-1.597,0.855-2.356,1.348c-0.833,0.539-1.635,1.124-2.411,1.742c-0.003,0.002-0.006,0.004-0.009,0.007
	c-0.16,0.122-0.318,0.243-0.479,0.366"/>
<path fill="none" stroke="#000000" stroke-width="2.8346" d="M224.477,29.464c-4.55,0-9.1,0-13.649,0
	c-1.163,0-2.329,0.074-3.481,0.25c-0.997,0.151-1.982,0.379-2.935,0.71c-0.82,0.288-1.614,0.651-2.348,1.116
	c-0.329,0.208-0.646,0.436-0.945,0.686c-0.282,0.236-0.549,0.491-0.794,0.765c-0.467,0.523-0.857,1.116-1.145,1.756
	c-0.145,0.324-0.262,0.657-0.354,1c-0.097,0.355-0.165,0.72-0.206,1.086c-0.044,0.396-0.059,0.796-0.048,1.197
	c0.01,0.42,0.045,0.842,0.108,1.257c0.119,0.783,0.337,1.55,0.656,2.273c0.307,0.694,0.707,1.349,1.187,1.937
	c0.486,0.596,1.054,1.125,1.678,1.576c0.66,0.478,1.382,0.867,2.138,1.173c0.821,0.331,1.684,0.563,2.559,0.707
	c0.473,0.077,0.947,0.128,1.424,0.156c0.248,0.015,0.496,0.024,0.746,0.026c0.186,0.002,0.37,0,0.557-0.002
	c0.221-0.006,0.441-0.012,0.662-0.022c0.846-0.039,1.689-0.128,2.523-0.274c0.783-0.137,1.557-0.324,2.312-0.569
	c0.72-0.233,1.421-0.517,2.097-0.854c0.656-0.327,1.286-0.705,1.883-1.131c0.594-0.425,1.151-0.896,1.67-1.41
	c1.719-1.701,2.988-3.855,3.75-6.103"/>
<path fill="none" stroke="#000000" stroke-width="2.8346" d="M224.588,48.421c-0.047-7.956-0.094-15.911-0.141-23.869
	c-0.006-0.636-0.046-1.274-0.131-1.906c-0.078-0.581-0.193-1.157-0.352-1.721c-0.148-0.524-0.332-1.04-0.559-1.535
	c-0.214-0.471-0.465-0.924-0.752-1.353c-0.281-0.416-0.596-0.81-0.943-1.172c-0.347-0.366-0.727-0.7-1.131-1.001
	c-0.416-0.311-0.86-0.587-1.321-0.828c-0.49-0.254-0.999-0.469-1.521-0.647c-0.562-0.192-1.137-0.344-1.721-0.457
	c-0.631-0.125-1.271-0.208-1.915-0.254c-0.343-0.026-0.686-0.04-1.03-0.047c-0.385-0.006-0.771-0.002-1.155,0.016
	c-0.792,0.035-1.583,0.126-2.363,0.275c-0.788,0.15-1.565,0.358-2.326,0.618c-0.796,0.273-1.572,0.6-2.327,0.974
	c-0.812,0.401-1.596,0.856-2.356,1.349c-0.833,0.539-1.634,1.124-2.411,1.741c-0.002,0.001-0.005,0.004-0.008,0.007
	c-0.16,0.121-0.318,0.243-0.479,0.366"/>
<path fill="none" stroke="#000000" stroke-width="2.8346" d="M149.365,48.421c-0.047-7.956-0.094-15.911-0.141-23.869
	c-0.006-0.636-0.047-1.274-0.132-1.906c-0.078-0.581-0.193-1.157-0.351-1.721c-0.148-0.524-0.333-1.04-0.56-1.535
	c-0.214-0.471-0.464-0.924-0.752-1.353c-0.28-0.416-0.596-0.81-0.942-1.172c-0.348-0.366-0.727-0.7-1.131-1.001
	c-0.416-0.311-0.861-0.587-1.323-0.828c-0.488-0.254-0.998-0.469-1.521-0.647c-0.561-0.192-1.136-0.344-1.719-0.457
	c-0.631-0.125-1.273-0.208-1.916-0.254c-0.342-0.026-0.686-0.04-1.029-0.047c-0.385-0.006-0.771-0.002-1.156,0.016
	c-0.791,0.035-1.582,0.126-2.363,0.275c-0.788,0.15-1.564,0.358-2.326,0.618c-0.795,0.273-1.572,0.6-2.326,0.974
	c-0.812,0.401-1.597,0.856-2.357,1.349c-0.832,0.539-1.635,1.124-2.41,1.741c-0.003,0.001-0.006,0.004-0.009,0.007
	c-0.159,0.121-0.319,0.243-0.478,0.366"/>
<path fill="none" stroke="#000000" stroke-width="2.8346" d="M149.252,29.464c-4.549,0-9.098,0-13.647,0
	c-1.165,0-2.33,0.074-3.481,0.25c-0.997,0.151-1.983,0.379-2.936,0.71c-0.819,0.288-1.613,0.651-2.348,1.116
	c-0.328,0.208-0.645,0.436-0.945,0.686c-0.281,0.236-0.549,0.491-0.793,0.765c-0.468,0.523-0.857,1.116-1.145,1.756
	c-0.145,0.324-0.263,0.657-0.355,1c-0.096,0.355-0.164,0.72-0.205,1.086c-0.045,0.396-0.059,0.796-0.049,1.197
	c0.011,0.42,0.046,0.842,0.109,1.257c0.119,0.783,0.336,1.55,0.654,2.273c0.308,0.694,0.709,1.349,1.188,1.937
	c0.487,0.596,1.055,1.125,1.679,1.576c0.66,0.478,1.382,0.867,2.136,1.173c0.822,0.331,1.685,0.563,2.561,0.707
	c0.471,0.077,0.946,0.128,1.424,0.156c0.248,0.015,0.496,0.024,0.746,0.026c0.184,0.002,0.369,0,0.555-0.002
	c0.222-0.006,0.443-0.012,0.664-0.022c0.846-0.039,1.689-0.128,2.523-0.274c0.782-0.137,1.556-0.324,2.311-0.569
	c0.719-0.233,1.421-0.517,2.098-0.854c0.656-0.327,1.285-0.705,1.883-1.131c0.593-0.425,1.151-0.896,1.67-1.41
	c1.719-1.701,2.986-3.855,3.75-6.103"/>
<line fill="none" stroke="#000000" stroke-width="2.8346" x1="113.36" y1="12.35" x2="113.36" y2="48.414"/>
<line fill="none" stroke="#000000" stroke-width="2.8346" x1="93.628" y1="12.35" x2="93.628" y2="48.414"/>
<path fill="none" stroke="#000000" stroke-width="2.8346" d="M93.624,28.694c0.073-1.086,0.21-2.17,0.429-3.236
	c0.202-0.99,0.475-1.964,0.83-2.909c0.333-0.887,0.741-1.747,1.229-2.558c0.466-0.777,1.008-1.509,1.622-2.178
	c0.601-0.653,1.273-1.242,1.999-1.753c0.73-0.514,1.518-0.948,2.34-1.298c0.85-0.359,1.738-0.628,2.642-0.814
	c0.956-0.197,1.931-0.301,2.907-0.327c0.198-0.005,0.396-0.011,0.594-0.016"/>
<path fill="none" stroke="#000000" stroke-width="2.8346" d="M81.519,29.464c-4.55,0-9.099,0-13.648,0
	c-1.165,0-2.33,0.074-3.481,0.25c-0.998,0.151-1.984,0.379-2.937,0.71c-0.819,0.288-1.613,0.651-2.347,1.116
	c-0.329,0.208-0.646,0.436-0.946,0.686c-0.282,0.236-0.549,0.491-0.793,0.765c-0.468,0.523-0.858,1.116-1.145,1.756
	c-0.145,0.324-0.263,0.657-0.355,1c-0.095,0.355-0.164,0.72-0.205,1.086c-0.045,0.396-0.058,0.796-0.048,1.197
	c0.011,0.42,0.045,0.842,0.109,1.257c0.119,0.783,0.336,1.55,0.655,2.273c0.307,0.694,0.708,1.349,1.188,1.937
	c0.486,0.596,1.054,1.125,1.678,1.576c0.66,0.478,1.381,0.867,2.136,1.173c0.822,0.331,1.685,0.563,2.56,0.707
	c0.471,0.077,0.947,0.128,1.424,0.156c0.248,0.015,0.497,0.024,0.745,0.026c0.186,0.002,0.371,0,0.557-0.002
	c0.221-0.006,0.442-0.012,0.664-0.022c0.846-0.039,1.69-0.128,2.523-0.274c0.782-0.137,1.555-0.324,2.311-0.569
	c0.718-0.233,1.42-0.517,2.097-0.854c0.656-0.327,1.287-0.705,1.883-1.131c0.594-0.425,1.152-0.896,1.67-1.41
	c1.719-1.701,2.987-3.855,3.75-6.103"/>
<path fill="none" stroke="#000000" stroke-width="2.8346" d="M81.631,48.421c-0.047-7.956-0.094-15.911-0.141-23.869
	c-0.005-0.636-0.046-1.274-0.131-1.906c-0.078-0.581-0.193-1.157-0.352-1.721c-0.148-0.524-0.333-1.04-0.559-1.535
	c-0.213-0.471-0.465-0.924-0.751-1.353c-0.281-0.416-0.597-0.81-0.942-1.172c-0.348-0.366-0.727-0.7-1.131-1.001
	c-0.417-0.311-0.861-0.587-1.323-0.828c-0.488-0.254-0.998-0.469-1.52-0.647c-0.561-0.192-1.136-0.344-1.719-0.457
	c-0.632-0.125-1.273-0.208-1.916-0.254c-0.343-0.026-0.687-0.04-1.029-0.047c-0.386-0.006-0.771-0.002-1.156,0.016
	c-0.793,0.035-1.583,0.126-2.363,0.275c-0.789,0.15-1.566,0.358-2.326,0.618c-0.796,0.273-1.573,0.6-2.328,0.974
	c-0.812,0.401-1.596,0.856-2.357,1.349c-0.832,0.539-1.634,1.124-2.41,1.741c-0.003,0.001-0.006,0.004-0.009,0.007
	c-0.16,0.121-0.319,0.243-0.478,0.366"/>
<polyline fill="none" stroke="#000000" stroke-width="2.8346" points="23.803,92.073 1.417,92.073 1.417,1.417 2.66,1.417 
	22.939,41.227 43.205,1.417 44.437,1.417 44.437,48.414 "/>
<path fill="none" stroke="#000000" stroke-width="2.8346" d="M121.329,93.355v-21.71c0-0.956-0.063-1.912-0.208-2.856
	c-0.135-0.874-0.338-1.737-0.629-2.573c-0.273-0.787-0.621-1.549-1.052-2.264c-0.416-0.689-0.909-1.336-1.47-1.913
	c-0.559-0.576-1.186-1.085-1.863-1.518c-0.693-0.443-1.438-0.807-2.21-1.091c-0.813-0.299-1.658-0.512-2.514-0.651
	c-0.922-0.149-1.856-0.216-2.79-0.216c-0.005,0-0.009,0-0.014,0c-0.005,0-0.009,0-0.014,0c-1.106,0.024-2.21,0.139-3.295,0.361
	c-1.017,0.211-2.016,0.518-2.969,0.93c-0.917,0.398-1.792,0.896-2.6,1.486c-0.799,0.584-1.533,1.26-2.182,2.006
	c-0.662,0.764-1.236,1.6-1.721,2.486c-0.508,0.926-0.919,1.906-1.241,2.912c-0.344,1.075-0.587,2.18-0.749,3.296
	c-0.174,1.21-0.25,2.432-0.25,3.653"/>
</svg>
